<?xml version="1.0" encoding="UTF-8"?>
<svg width="267.26" height="41.819" version="1.1" viewBox="0 0 70.713 11.065" xmlns="http://www.w3.org/2000/svg" xmlns:cc="http://creativecommons.org/ns#" xmlns:dc="http://purl.org/dc/elements/1.1/" xmlns:rdf="http://www.w3.org/1999/02/22-rdf-syntax-ns#">
<metadata>
<rdf:RDF>
<cc:Work rdf:about="">
<dc:format>image/svg+xml</dc:format>
<dc:type rdf:resource="http://purl.org/dc/dcmitype/StillImage"/>
</cc:Work>
</rdf:RDF>
</metadata>
<g transform="translate(-75.675 -33.758)">
<path d="m98.223 36.98-0.54231 1.465s-0.1598-0.1229-0.48653-0.29336c-0.32674-0.17048-0.98021-0.24861-1.2501-0.2344-0.26991 0.01415-0.84389 0.05844-0.95094 0.59378-0.10957 0.42488 0.15884 0.76037 0.80178 1.0257 0.7174 0.27701 1.6266 0.67069 1.9959 0.98881 0.43041 0.36032 0.63956 0.65572 0.77968 1.0924 0.14291 0.44541 0.16208 1.0546-0.01249 1.5484-0.18468 0.51142-0.54861 0.9349-1.0797 1.2217-0.53229 0.2875-1.5228 0.45294-2.0769 0.41032-0.55403-0.04264-0.80562-0.02915-1.4067-0.23224-0.44038-0.17046-0.95117-0.44475-0.95117-0.44475l0.67166-1.4998s0.22417 0.20877 0.652 0.4027c0.5559 0.20398 0.58668 0.21223 1.2618 0.26404 0.66761 0.0192 0.9401-0.23562 1.0253-0.4203 0.08524-0.18468 0.10862-0.56902-0.02844-0.80974-0.14206-0.21309-0.21732-0.4094-1.0271-0.76454-0.80974-0.35515-0.76288-0.32632-1.5442-0.76821-0.78133-0.44188-1.0512-1.2085-1.0512-1.6775 0-0.46906 0.02913-0.93112 0.38356-1.4351 0.33937-0.50395 0.96184-0.77802 1.4632-0.89497 0.5169-0.12053 1.0868-0.10656 1.4987-0.0781 0.41197 0.02843 0.81684 0.13495 1.1152 0.22019 0.29833 0.0853 0.75893 0.31996 0.75893 0.31996z" fill="#fcb43c"/>
<path d="m100.19 33.758v11.057h1.9152v-5.9715s0.32296-0.5266 1.0603-0.73755c0.78352-0.21094 1.3408 0.0289 1.6321 0.22982 0.2913 0.2009 0.56963 0.59205 0.60981 1.1747 0 0.73568 7e-3 2.8829 7e-3 2.8829l6.5e-4 0.73495s-0.047 0.64752 0.34479 1.0832c0.32715 0.34745 0.61454 0.5401 1.5637 0.57698 0-1.4411 4e-3 -4.2635 4e-3 -4.2635s0-0.69311-0.01-1.1853c-0.01-0.49221-0.25695-1.5605-0.87394-2.1195-0.58763-0.53238-1.2456-0.7132-1.8081-0.78352-0.56252-0.07035-1.1904-0.02016-1.567 0.11044-0.39678 0.07035-0.96167 0.53313-0.96167 0.53313v-3.3224z" fill="#fcb43c"/>
<circle cx="110.17" cy="43.599" r="1.1652" fill="#27803e"/>
<path d="m113.14 33.758v2.7811h-1.6297s0.0543 0.69126 0.54654 1.1031c0.49221 0.41185 1.0831 0.41058 1.0831 0.41058v5.0757c0 0.53074 0.1463 1.6244 1.9073 1.6602v-6.7329h1.4897s0.39176-0.07204 0.57257 0.3599c0.18083 0.43195 2.1396 5.3541 2.1396 5.3541s0.32267 0.93663 1.1015 0.99863c0.75042 0.07618 1.1285-0.80777 1.1285-0.80777l2.9693-7.4215h-1.9971l-1.9395 5.7514s-0.0608 0.15195-0.10512 0.14791c-0.0568 0.0012-0.11156-0.17099-0.11156-0.17099l-1.3976-4.138c-0.15622-0.41908-0.40683-1.5319-2.0542-1.5821-0.99447-0.02515-1.8031 0-1.8031 0l8e-3 -2.7893z" fill="#fcb43c"/>
<path d="m88.2 36.415c-0.60531-0.0021-1.2333 0.10698-1.7447 0.36979-1.0781 0.57082-1.5718 1.192-1.977 2.063-0.31988 0.67009-0.38203 1.6776-0.32521 2.429 0.0568 0.75141 0.39783 1.6908 0.88083 2.2306 0.46292 0.58001 1.1079 0.88074 1.5909 1.0654 0.483 0.18467 1.1366 0.18442 1.648 0.21283 0.51141 0.02842 1.6619-0.17075 2.1591-0.39804 0.49721-0.22729 0.67365-0.4018 0.67365-0.4018l-0.73141-1.439s-0.4104 0.46322-1.2381 0.61087c-1.2144 0.17276-1.9766-0.02047-2.6306-0.76406-0.40778-0.53766-0.39804-1.2142-0.39804-1.2142h5.7678s0.06309-0.29289 0.1199-0.96056c0.05181-0.5823-0.0523-1.2163-0.40243-1.923-0.33004-0.68661-0.97013-1.2452-1.7849-1.5878-0.41994-0.17879-1.0025-0.2912-1.6078-0.29319zm-0.03704 1.5746c0.42215 0.0023 0.82109 0.06904 1.1577 0.27122 0.37342 0.22429 0.57024 0.56182 0.68056 0.86828 0.10654 0.28385 0.13938 0.63347 0.13938 0.63347h-3.9666s0.04348-0.22018 0.13936-0.47589c0.07812-0.21309 0.19804-0.43892 0.35786-0.64163 0.15627-0.19205 0.32291-0.3268 0.56441-0.45642 0.24396-0.11933 0.57064-0.20109 0.92729-0.19902z" fill="#fcb43c"/>
<path d="m80.868 33.758v3.3224c-0.35409-0.34154-1.0761-0.64858-1.7083-0.65356-1.1453-9e-3 -1.7819 0.13273-2.4585 0.65795-0.45673 0.35451-0.76092 0.88536-0.9003 1.4157-0.14655 0.55762-0.12431 1.0498-0.12431 2.0197 0 1.753-0.01897 1.871 0.28566 2.6726 0.18842 0.49583 0.46254 0.75083 0.76155 0.99635 0.66786 0.5484 1.5514 0.66052 2.4385 0.62845 0.62085-0.0023 1.3293-0.28692 1.7058-0.64917l-0.0044 0.49598h1.9199v-10.906zm-1.7058 4.246c0.74334-0.02009 1.6693 0.61161 1.7058 0.84002v3.5616c-0.49006 0.60115-1.2236 0.85195-1.7058 0.85195-0.48217 0-1.0849-0.24109-1.4264-0.86388-0.34153-0.62279-0.19086-1.8684-0.19086-1.8684s-0.05022-1.2858 0.18081-1.6775c0.23104-0.39175 0.69312-0.8237 1.4365-0.84379z" fill="#fcb43c"/>
<path d="m130.6 41.253c-0.24727-0.14434-0.54861-0.20691-0.8331-0.20915-0.51533-4e-3 -0.80179 0.05972-1.1063 0.29606-0.20551 0.15952-0.34239 0.39839-0.40511 0.63704-0.0659 0.25092-0.0559 0.47238-0.0559 0.90881 0 0.78878 0.0153 0.96433 0.12854 1.2026 0.0957 0.20143 0.24605 0.39166 0.43738 0.50621 0.29385 0.17592 0.60337 0.23934 1.0025 0.22491 0.4403-7.65e-4 0.90001-0.20151 1.1724-0.53335 0.31691-0.38598 0.34494-0.71823 0.34303-1.4584-1e-3 -0.52974 7e-3 -0.69804-0.13891-1.0018-0.11435-0.23739-0.31703-0.44012-0.5446-0.57295zm-0.83196 0.50049c0.33448-9e-3 0.48587 0.08814 0.62617 0.26637 0.17625 0.2239 0.14051 0.58916 0.14054 0.84319 6e-5 0.45451-5e-3 0.69343-0.20006 0.9529-0.12853 0.17105-0.34969 0.3015-0.56665 0.3015s-0.48817-0.10848-0.64185-0.38872c-0.15368-0.28024-0.13489-0.55699-0.13323-0.84072 1e-3 -0.25524 0.0248-0.57856 0.12871-0.75484 0.10396-0.17628 0.31188-0.37064 0.64636-0.37968z" fill="#fcb43c"/>
<path d="m137.4 41.416v2.6436c0 0.23882 0.0658 0.73095 0.85821 0.74704v-0.66643c9e-4 -1.4735-4e-3 -1.2862 4.4e-4 -2.7242z" fill="#fcb43c"/>
<path d="m135.86 39.844v3.8857 0.33071c0 0.23882 0.0658 0.73095 0.85821 0.74704 1e-3 -1.9977-5e-3 -3.2003 4.4e-4 -4.9635z" fill="#fcb43c"/>
<path d="m138.95 42.116v2.7024h0.86179v-2.687s0.14532-0.23696 0.47711-0.33188c0.35256-0.09492 0.60331 0.013 0.73439 0.10341 0.13108 0.0904 0.25632 0.26641 0.2744 0.52857 0 0.33103 3e-3 1.2972 3e-3 1.2972l2.9e-4 0.33071s-0.0211 0.29137 0.15515 0.48742c0.1472 0.15634 0.27652 0.24303 0.70362 0.25963 0-0.64848 2e-3 -1.9185 2e-3 -1.9185s0-0.31188-5e-3 -0.53336c-4e-3 -0.22148-0.11562-0.7022-0.39324-0.95373-0.26442-0.23956-0.56049-0.32092-0.81361-0.35256-0.25311-0.03166-0.53562-0.0091-0.70512 0.04969-0.17854 0.03166-0.43273 0.32918-0.43273 0.32918v-0.39517l-0.86802 0.0019c-0.0104 0.91614 2e-3 0.25263 5e-3 1.082z" fill="#fcb43c"/>
<path d="m144.67 41.039c-0.27238-9.45e-4 -0.55495 0.04814-0.78507 0.16639-0.48511 0.25686-0.70726 0.53638-0.8896 0.9283-0.14394 0.30152-0.1719 0.75488-0.14634 1.093 0.0256 0.33812 0.17902 0.76082 0.39635 1.0037 0.2083 0.26099 0.49853 0.39631 0.71586 0.4794 0.21734 0.0831 0.51144 0.08298 0.74157 0.09577 0.23012 0.01279 0.74779-0.07683 0.97152-0.1791 0.22373-0.10228 0.30312-0.1808 0.30312-0.1808l-0.32911-0.64749s-0.18467 0.20844-0.55709 0.27487c-0.54645 0.07774-0.88944-0.0092-1.1837-0.3438-0.18348-0.24193-0.1791-0.54636-0.1791-0.54636h2.5953s0.0284-0.13179 0.054-0.43223c0.0233-0.26202-0.0235-0.54731-0.18108-0.8653-0.14851-0.30896-0.43653-0.56032-0.80315-0.71444-0.18896-0.08045-0.45112-0.13103-0.72349-0.13193zm-0.0166 0.70851c0.18995 1e-3 0.36947 0.03107 0.52093 0.12204 0.16803 0.10092 0.2566 0.2528 0.30623 0.3907 0.0479 0.12772 0.0627 0.28504 0.0627 0.28504h-1.7848s0.0196-0.09907 0.0627-0.21414c0.0351-0.09588 0.0891-0.1975 0.16102-0.28872 0.0703-0.08642 0.1453-0.14705 0.25397-0.20538 0.10978-0.05369 0.25677-0.09048 0.41726-0.08955z" fill="#fcb43c"/>
<path d="m131.97 42.116v2.7024h0.86179v-2.687s0.14532-0.23696 0.47711-0.33188c0.35256-0.09492 0.60331 0.013 0.73439 0.10341 0.13108 0.0904 0.25632 0.26641 0.2744 0.52857 0 0.33103 3e-3 1.2972 3e-3 1.2972l2.9e-4 0.33071s-0.0212 0.29137 0.15515 0.48742c0.1472 0.15634 0.27652 0.24303 0.70362 0.25963 0-0.64848 2e-3 -1.9185 2e-3 -1.9185s0-0.31188-4e-3 -0.53336c-5e-3 -0.22148-0.11563-0.7022-0.39325-0.95373-0.26442-0.23956-0.56049-0.32092-0.81361-0.35256-0.25311-0.03166-0.53562-0.0091-0.70512 0.04969-0.17854 0.03166-0.43273 0.32918-0.43273 0.32918v-0.39517l-0.86802 0.0019c-0.0104 0.91614 2e-3 0.25263 5e-3 1.082z" fill="#fcb43c"/>
<circle cx="137.83" cy="40.402" r=".52432" fill="#ececec"/>
</g>
</svg>
